<svg xmlns="http://www.w3.org/2000/svg" version="1.1" xmlns:xlink="http://www.w3.org/1999/xlink" xmlns:svgjs="http://svgjs.com/svgjs" width="128.66428" height="127.33227"><svg xmlns:dc="http://purl.org/dc/elements/1.1/" xmlns:cc="http://creativecommons.org/ns#" xmlns:rdf="http://www.w3.org/1999/02/22-rdf-syntax-ns#" xmlns:svg="http://www.w3.org/2000/svg" xmlns="http://www.w3.org/2000/svg" viewBox="0 0 128.66428 127.33227" height="127.33227" width="128.66428" xml:space="preserve" id="SvgjsSvg1048" version="1.1"><metadata id="SvgjsMetadata1047"><rdf:rdf><cc:work rdf:about=""><dc:format>image/svg+xml</dc:format><dc:type rdf:resource="http://purl.org/dc/dcmitype/StillImage"></dc:type></cc:work></rdf:rdf></metadata><defs id="SvgjsDefs1046"><clipPath id="SvgjsClipPath1045" clipPathUnits="userSpaceOnUse"><path id="SvgjsPath1044" d="M 0,0 H 1920 V 1080 H 0 Z"></path></clipPath><clipPath id="SvgjsClipPath1043" clipPathUnits="userSpaceOnUse"><path id="SvgjsPath1042" d="M 0,0 H 1920 V 1080 H 0 Z"></path></clipPath><clipPath id="SvgjsClipPath1041" clipPathUnits="userSpaceOnUse"><path id="SvgjsPath1040" d="m 811.9391,488.2819 h 406.8953 v 106.332 H 811.9391 Z"></path></clipPath><clipPath id="SvgjsClipPath1039" clipPathUnits="userSpaceOnUse"><path id="SvgjsPath1038" d="m 757.0302,576.633 41.1961,23.7846 27.3094,-47.3013 -41.1961,-23.7846 z"></path></clipPath><clipPath id="SvgjsClipPath1037" clipPathUnits="userSpaceOnUse"><path id="SvgjsPath1036" d="M 0,0 H 1920 V 1080 H 0 Z"></path></clipPath><clipPath id="SvgjsClipPath1035" clipPathUnits="userSpaceOnUse"><path id="SvgjsPath1034" d="m 757.0302,526.8837 41.1961,23.7846 27.3094,-47.3013 -41.1961,-23.7846 z"></path></clipPath><clipPath id="SvgjsClipPath1033" clipPathUnits="userSpaceOnUse"><path id="SvgjsPath1032" d="M 0,0 H 1920 V 1080 H 0 Z"></path></clipPath><clipPath id="SvgjsClipPath1031" clipPathUnits="userSpaceOnUse"><path id="SvgjsPath1030" d="m 713.3635,551.5344 41.1962,23.7847 27.3094,-47.3013 -41.1962,-23.7846 z"></path></clipPath><clipPath id="SvgjsClipPath1029" clipPathUnits="userSpaceOnUse"><path id="SvgjsPath1028" d="M 0,0 H 1920 V 1080 H 0 Z"></path></clipPath></defs><g clip-path="url(#clipPath14)" transform="matrix(1.3333333,0,0,-1.3333333,-961.582,783.6124)" id="SvgjsG1027"><g id="SvgjsG1026"></g><g id="SvgjsG1025"><g clip-path="url(#clipPath24)" id="SvgjsG1024"><path id="SvgjsPath1023" style="fill:#ffffff;fill-opacity:1;fill-rule:nonzero;stroke:none" d="M 0,0 H 1920 V 1080 H 0 Z"></path></g></g><g id="SvgjsG1022"><g clip-path="url(#clipPath34)" id="SvgjsG1021"><g transform="translate(829.6051,518.6042)" id="SvgjsG1020"><text id="SvgjsText1019" style="font-variant:normal;font-weight:normal;font-size:60px;font-family:LucidaGrande;-inkscape-font-specification:LucidaGrande;writing-mode:lr-tb;fill:#5e5e5e;fill-opacity:1;fill-rule:nonzero;stroke:none" transform="scale(1,-1)" svgjs:data="{&quot;leading&quot;:&quot;1.3&quot;}"><tspan id="SvgjsTspan1018" y="0" x="0 37.236 54.612 110.628 148.40401 165.78 199.23599 229.812 260.56799 293.724 331.5" svgjs:data="{&quot;leading&quot;:&quot;1.3&quot;}">nimblescape</tspan></text>
</g></g></g><g id="SvgjsG1017"><g clip-path="url(#clipPath48)" id="SvgjsG1016"><g clip-path="url(#clipPath54)" id="SvgjsG1015"><path id="SvgjsPath1014" style="fill:#ffffff;fill-opacity:1;fill-rule:nonzero;stroke:none" d="m 779.283,585.6593 h 24 l 12,-20.7846 -12,-20.7846 h -24 l -12,20.7846 z"></path><g transform="matrix(0.8660254,0.5,0.5,-0.8660254,758.4984,573.6593)" id="SvgjsG1013"><path id="SvgjsPath1012" style="fill:none;stroke:#5e5e5e;stroke-width:4;stroke-linecap:butt;stroke-linejoin:miter;stroke-miterlimit:4;stroke-dasharray:none;stroke-opacity:1" d="M 24,0 44.78461,12 V 36 L 24,48 3.21539,36 V 12 Z"></path></g></g></g></g><g id="SvgjsG1011"><g clip-path="url(#clipPath68)" id="SvgjsG1010"><g clip-path="url(#clipPath74)" id="SvgjsG1009"><path id="SvgjsPath1008" style="fill:#ffffff;fill-opacity:1;fill-rule:nonzero;stroke:none" d="m 779.283,535.9099 h 24 l 12,-20.7846 -12,-20.7846 h -24 l -12,20.7846 z"></path><g transform="matrix(0.8660254,0.5,0.5,-0.8660254,758.4984,523.9099)" id="SvgjsG1007"><path id="SvgjsPath1006" style="fill:none;stroke:#5e5e5e;stroke-width:4;stroke-linecap:butt;stroke-linejoin:miter;stroke-miterlimit:4;stroke-dasharray:none;stroke-opacity:1" d="M 24,0 44.78461,12 V 36 L 24,48 3.21539,36 V 12 Z"></path></g></g></g></g><g id="SvgjsG1005"><g clip-path="url(#clipPath88)" id="SvgjsG1004"><g clip-path="url(#clipPath94)" id="SvgjsG1003"><path id="SvgjsPath1002" style="fill:#ffffff;fill-opacity:1;fill-rule:nonzero;stroke:none" d="m 735.6163,560.5607 h 24 l 12,-20.7846 -12,-20.7846 h -24 l -12,20.7846 z"></path><g transform="matrix(0.8660254,0.5,0.5,-0.8660254,714.8317,548.5607)" id="SvgjsG1001"><path id="SvgjsPath1000" style="fill:none;stroke:#5e5e5e;stroke-width:4;stroke-linecap:butt;stroke-linejoin:miter;stroke-miterlimit:4;stroke-dasharray:none;stroke-opacity:1" d="M 24,0 44.78461,12 V 36 L 24,48 3.21539,36 V 12 Z"></path></g></g></g></g></g></svg><style>@media (prefers-color-scheme: light) { :root { filter: none; } }
</style></svg>