<?xml version="1.0" encoding="UTF-8" standalone="no"?>
<svg
   xmlns:dc="http://purl.org/dc/elements/1.1/"
   xmlns:cc="http://creativecommons.org/ns#"
   xmlns:rdf="http://www.w3.org/1999/02/22-rdf-syntax-ns#"
   xmlns:svg="http://www.w3.org/2000/svg"
   xmlns="http://www.w3.org/2000/svg"
   viewBox="0 0 626.60162 128.32187"
   height="128.32187"
   width="626.60162"
   xml:space="preserve"
   id="svg2"
   version="1.1"><metadata
     id="metadata8"><rdf:RDF><cc:Work
         rdf:about=""><dc:format>image/svg+xml</dc:format><dc:type
           rdf:resource="http://purl.org/dc/dcmitype/StillImage" /></cc:Work></rdf:RDF></metadata><defs
     id="defs6"><clipPath
       id="clipPath14"
       clipPathUnits="userSpaceOnUse"><path
         id="path12"
         d="M 0,0 H 1920 V 1080 H 0 Z" /></clipPath><clipPath
       id="clipPath24"
       clipPathUnits="userSpaceOnUse"><path
         id="path22"
         d="M 0,0 H 1920 V 1080 H 0 Z" /></clipPath><clipPath
       id="clipPath34"
       clipPathUnits="userSpaceOnUse"><path
         id="path32"
         d="m 811.9391,488.2819 h 406.8953 v 106.332 H 811.9391 Z" /></clipPath><clipPath
       id="clipPath48"
       clipPathUnits="userSpaceOnUse"><path
         id="path46"
         d="m 757.0302,576.633 41.1961,23.7846 27.3094,-47.3013 -41.1961,-23.7846 z" /></clipPath><clipPath
       id="clipPath54"
       clipPathUnits="userSpaceOnUse"><path
         id="path52"
         d="M 0,0 H 1920 V 1080 H 0 Z" /></clipPath><clipPath
       id="clipPath68"
       clipPathUnits="userSpaceOnUse"><path
         id="path66"
         d="m 757.0302,526.8837 41.1961,23.7846 27.3094,-47.3013 -41.1961,-23.7846 z" /></clipPath><clipPath
       id="clipPath74"
       clipPathUnits="userSpaceOnUse"><path
         id="path72"
         d="M 0,0 H 1920 V 1080 H 0 Z" /></clipPath><clipPath
       id="clipPath88"
       clipPathUnits="userSpaceOnUse"><path
         id="path86"
         d="m 713.3635,551.5344 41.1962,23.7847 27.3094,-47.3013 -41.1962,-23.7846 z" /></clipPath><clipPath
       id="clipPath94"
       clipPathUnits="userSpaceOnUse"><path
         id="path92"
         d="M 0,0 H 1920 V 1080 H 0 Z" /></clipPath></defs><g
     clip-path="url(#clipPath14)"
     transform="matrix(1.3333333,0,0,-1.3333333,-960.97973,784.0692)"
     id="g10"><g
       id="g16" /><g
       id="g18"><g
         clip-path="url(#clipPath24)"
         id="g20"><path
           id="path26"
           style="fill:#ffffff;fill-opacity:1;fill-rule:nonzero;stroke:none"
           d="M 0,0 H 1920 V 1080 H 0 Z" /></g></g><g
       id="g28"><g
         clip-path="url(#clipPath34)"
         id="g30"><g
           transform="translate(829.6051,518.6042)"
           id="g36"><text
             id="text40"
             style="font-variant:normal;font-weight:normal;font-size:60px;font-family:LucidaGrande;-inkscape-font-specification:LucidaGrande;writing-mode:lr-tb;fill:#5e5e5e;fill-opacity:1;fill-rule:nonzero;stroke:none"
             transform="scale(1,-1)"><tspan
               id="tspan38"
               y="0"
               x="0 37.236 54.612 110.628 148.40401 165.78 199.23599 229.812 260.56799 293.724 331.5">nimblescape</tspan></text>
</g></g></g><g
       id="g42"><g
         clip-path="url(#clipPath48)"
         id="g44"><g
           clip-path="url(#clipPath54)"
           id="g50"><path
             id="path56"
             style="fill:#ffffff;fill-opacity:1;fill-rule:nonzero;stroke:none"
             d="m 779.283,585.6593 h 24 l 12,-20.7846 -12,-20.7846 h -24 l -12,20.7846 z" /><g
             transform="matrix(0.8660254,0.5,0.5,-0.8660254,758.4984,573.6593)"
             id="g58"><path
               id="path60"
               style="fill:none;stroke:#5e5e5e;stroke-width:4;stroke-linecap:butt;stroke-linejoin:miter;stroke-miterlimit:4;stroke-dasharray:none;stroke-opacity:1"
               d="M 24,0 44.78461,12 V 36 L 24,48 3.21539,36 V 12 Z" /></g></g></g></g><g
       id="g62"><g
         clip-path="url(#clipPath68)"
         id="g64"><g
           clip-path="url(#clipPath74)"
           id="g70"><path
             id="path76"
             style="fill:#ffffff;fill-opacity:1;fill-rule:nonzero;stroke:none"
             d="m 779.283,535.9099 h 24 l 12,-20.7846 -12,-20.7846 h -24 l -12,20.7846 z" /><g
             transform="matrix(0.8660254,0.5,0.5,-0.8660254,758.4984,523.9099)"
             id="g78"><path
               id="path80"
               style="fill:none;stroke:#5e5e5e;stroke-width:4;stroke-linecap:butt;stroke-linejoin:miter;stroke-miterlimit:4;stroke-dasharray:none;stroke-opacity:1"
               d="M 24,0 44.78461,12 V 36 L 24,48 3.21539,36 V 12 Z" /></g></g></g></g><g
       id="g82"><g
         clip-path="url(#clipPath88)"
         id="g84"><g
           clip-path="url(#clipPath94)"
           id="g90"><path
             id="path96"
             style="fill:#ffffff;fill-opacity:1;fill-rule:nonzero;stroke:none"
             d="m 735.6163,560.5607 h 24 l 12,-20.7846 -12,-20.7846 h -24 l -12,20.7846 z" /><g
             transform="matrix(0.8660254,0.5,0.5,-0.8660254,714.8317,548.5607)"
             id="g98"><path
               id="path100"
               style="fill:none;stroke:#5e5e5e;stroke-width:4;stroke-linecap:butt;stroke-linejoin:miter;stroke-miterlimit:4;stroke-dasharray:none;stroke-opacity:1"
               d="M 24,0 44.78461,12 V 36 L 24,48 3.21539,36 V 12 Z" /></g></g></g></g></g></svg>